<svg width="405" height="622" viewBox="0 0 405 622" fill="none" xmlns="http://www.w3.org/2000/svg">
<g opacity="0.25">
<path d="M428.689 144.17C444.399 144.17 457.135 131.42 457.135 115.692C457.135 99.9637 444.399 87.2137 428.689 87.2137C412.979 87.2137 400.243 99.9637 400.243 115.692C400.243 131.42 412.979 144.17 428.689 144.17Z" fill="#DB2D36"/>
<path fill-rule="evenodd" clip-rule="evenodd" d="M713.505 301.51C640.683 384.096 534.176 409.489 491.981 409.37C327.848 278.087 347.618 79.9755 378.909 0C613.588 17.0868 704.971 215.008 713.505 301.51ZM424.422 308.986C348.187 182.259 368.004 60.1596 387.442 14.9509C544.464 30.329 635.397 141.203 661.235 194.718L527.894 167.308C520.072 165.172 500.871 161.541 486.648 164.104C472.425 166.667 463.417 182.259 460.691 189.734L424.422 308.986ZM496.604 392.284L474.914 374.129C487.122 331.531 514.098 244.554 524.339 237.435C534.579 230.315 634.33 251.08 682.925 262.353L692.17 271.608L695.37 297.238L684.703 307.918L594.387 290.119C587.75 288.695 572.057 286.203 562.385 287.627C552.714 289.051 545.318 301.747 542.829 307.918L519.361 392.284H496.604Z" fill="#DB2D36"/>
<path d="M88.4036 122.811C125.146 127.32 207.521 143.102 243.079 170.156C242.012 139.542 245.354 62.5803 268.68 11.0352C232.767 19.9346 157.741 45.2087 88.4036 122.811Z" fill="#DB2D36"/>
<path d="M356.152 411.506C363.239 414.054 371.524 416.492 380.821 418.659C379.765 424.658 376.965 428.172 374.212 430.262C373.022 431.165 371.811 431.825 370.701 432.301C365.69 425.665 360.833 418.737 356.152 411.506Z" fill="#DB2D36"/>
<path d="M401.347 422.687C395.641 421.762 390.191 420.727 385.027 419.606C383.759 426.536 380.424 430.958 376.816 433.698C375.667 434.57 374.503 435.263 373.387 435.811C378.773 442.759 384.329 449.38 390.025 455.686C391.326 450.244 394.547 446.373 397.204 444.274C396.026 439.77 396.958 434.519 398.432 429.931C399.255 427.37 400.287 424.894 401.347 422.687Z" fill="#DB2D36"/>
<path d="M400.859 446.967C398.468 448.411 394.158 452.802 393.778 459.775C396.44 462.628 399.131 465.414 401.847 468.136C405.841 465.185 411.324 462.011 418.035 459.264C417.12 455.089 416.456 449.386 417.045 443.924C417.72 437.659 420.134 431.076 426.469 428.076L427.521 427.578L428.514 428.186C430.321 429.294 432.845 430.151 434.834 429.779C435.744 429.609 436.556 429.184 437.232 428.332C437.555 427.924 437.871 427.389 438.145 426.689C426.722 426.023 415.894 424.876 405.81 423.38C404.633 425.698 403.441 428.427 402.533 431.252C400.943 436.201 400.389 440.951 401.744 444.314L402.431 446.018L400.859 446.967Z" fill="#DB2D36"/>
<path d="M416.211 481.721C412.417 478.333 408.662 474.83 404.953 471.207C408.912 468.366 414.462 465.243 421.343 462.589C425.507 460.983 430.148 459.552 435.204 458.459C438.647 457.715 442.283 457.128 446.091 456.748C460.523 455.31 477.463 456.855 495.88 464.196L496.046 464.262L496.221 464.3C503.927 465.967 514.985 468.223 526.266 470.284C535.25 471.924 544.397 473.445 552.112 474.446C557.573 475.154 562.471 475.625 566.106 475.653C563.477 481.453 560.14 487.668 555.934 494.183C548.937 487.309 538.526 479.377 526.888 474.628C514.44 469.55 500.272 468.007 487.473 475.775C448.157 460.743 425.173 471.462 416.211 481.721Z" fill="#DB2D36"/>
<path d="M433.402 496.103C428.706 492.424 424.051 488.584 419.45 484.577C426.784 476.219 446.777 465.738 483.18 478.783C481.021 480.51 478.929 482.53 476.917 484.863L476.844 484.947L476.781 485.038C475.589 486.747 474.755 488.637 474.262 490.594C465.153 487.186 448.095 484.958 433.402 496.103Z" fill="#DB2D36"/>
<path d="M436.954 498.849C446.586 506.198 456.378 512.881 466.227 518.948C472.16 518.986 481.656 517.445 491.866 511.662C487.849 511.94 484.369 511.094 481.512 509.377C476.347 506.273 473.737 500.614 473.722 495.013C466.039 491.818 450.476 489.271 436.954 498.849Z" fill="#DB2D36"/>
<path d="M479.669 526.837C477.327 525.529 474.986 524.187 472.646 522.812C480.335 521.748 490.249 518.603 500.22 511.418C498.569 514.22 496.026 516.844 492.996 519.209C488.619 522.626 483.544 525.25 479.669 526.837Z" fill="#DB2D36"/>
<path d="M490.164 532.479C488.251 531.49 486.336 530.479 484.421 529.446C487.986 527.751 492.018 525.442 495.645 522.61C498.885 520.081 501.961 517.009 504.019 513.461C504.428 517.662 504.181 522.915 502.215 528.163C499.46 528.374 495.11 529.496 490.164 532.479Z" fill="#DB2D36"/>
<path d="M531.058 550.62C519.176 546.17 507.029 540.942 494.814 534.842C499.092 532.732 502.353 532.358 503.508 532.449L503.612 532.457L503.718 532.455C506.104 532.41 513.093 534.178 518.159 542.721L519.019 544.17L520.63 543.686C522.76 543.046 528.455 542.958 532.919 548.636L531.058 550.62Z" fill="#DB2D36"/>
<path d="M553.601 558.266C547.648 556.454 541.589 554.448 535.452 552.235L542.388 544.836C545.91 548.692 550.559 551.755 556.297 551.683L556.425 551.682L556.552 551.665C557.301 551.566 558.142 551.402 559.038 551.163L553.601 558.266Z" fill="#DB2D36"/>
<path d="M563.689 561.184C565.936 561.8 568.165 562.388 570.374 562.95L579.336 555.651C578.465 550.481 577.245 545.245 575.642 541.146C574.782 538.948 573.852 537.182 572.879 535.944C572.621 539.011 571.617 541.602 570.139 543.744C569.848 544.167 569.539 544.57 569.217 544.954L558.083 559.501L563.689 561.184Z" fill="#DB2D36"/>
<path d="M580.611 565.393C578.959 565.024 577.294 564.64 575.616 564.24L580.074 560.61C580.292 562.287 580.47 563.898 580.611 565.393Z" fill="#DB2D36"/>
<path d="M597.418 568.716C593.387 568.024 589.251 567.237 585.021 566.349C584.772 563.367 584.369 559.845 583.791 556.198C583.079 551.706 582.092 546.955 580.773 542.769C583.452 545.67 585.953 548.922 588.224 552.278C592.143 558.067 595.288 564.025 597.418 568.716Z" fill="#DB2D36"/>
<path d="M602.48 569.545C612.992 571.18 622.711 572.158 631.394 572.594C611.416 534.869 588.017 530.114 575.799 532.566C581.991 536.951 587.412 543.39 591.791 549.858C596.616 556.987 600.311 564.354 602.48 569.545Z" fill="#DB2D36"/>
<path d="M643.975 572.851C641.55 572.881 639.006 572.861 636.35 572.788C612.762 526.489 582.816 524.201 569.764 529.942L568.29 530.591L568.494 532.19C569.003 536.175 568.098 539.093 566.623 541.252L565.87 542.236C563.155 545.42 558.963 546.967 556.116 547.372C551.418 547.377 547.362 544.409 544.065 540.132C540.874 535.993 538.685 530.983 537.621 527.526C538.01 521.248 539.818 516.549 542.408 513.03C545.054 509.433 548.609 506.945 552.587 505.29C560.61 501.954 570.159 502.098 576.511 503.306L577.734 503.539L578.546 502.594C581.331 499.352 585.406 496.909 589.511 495.178C593.511 493.491 597.362 492.555 599.687 492.203C623.429 492.252 637.671 503.564 644.542 512.89C646.544 515.607 647.9 518.13 648.683 520.125L649.079 521.135L650.125 521.419C660.424 524.209 668.587 531.007 672.352 535.064C671.688 536.243 671.015 537.422 670.333 538.601L648.051 571.422C638.373 536.482 605.457 520.217 589.631 516.344L588.608 520.534C603.748 524.239 634.97 539.85 643.975 572.851Z" fill="#DB2D36"/>
<path d="M686.116 507.868C682.622 515.604 678.773 523.366 674.539 531.121C670.183 526.732 662.235 520.51 652.275 517.547C651.563 515.931 650.595 514.144 649.364 512.274C654.283 509.68 661.223 508.323 668.387 507.776C674.896 507.28 681.339 507.468 686.116 507.868Z" fill="#DB2D36"/>
<path d="M687.963 503.706C691.111 496.482 693.954 489.286 696.518 482.145C679.542 474.164 664.844 474.631 653.225 478.528C642.375 482.167 634.122 488.83 629.2 494.596C637.015 498.574 642.813 503.794 646.801 508.76C652.618 505.514 660.555 504.048 668.06 503.476C675.518 502.907 682.869 503.201 687.963 503.706Z" fill="#DB2D36"/>
<path d="M700.373 470.806C699.599 473.216 698.794 475.634 697.957 478.058C680.138 469.794 664.434 470.22 651.857 474.438C639.617 478.543 630.433 486.205 625.148 492.728C619.052 490.197 611.898 488.435 603.61 487.996C614.951 472.319 625.741 463.627 636.225 459.457C646.89 455.216 657.503 455.549 668.529 458.364C678.785 460.982 689.258 465.705 700.373 470.806Z" fill="#DB2D36"/>
<path d="M710.888 430.059C708.544 441.925 705.521 454.176 701.677 466.66C690.777 461.658 680.109 456.869 669.593 454.185C668.09 453.801 666.586 453.459 665.083 453.165C683.242 437.591 701.416 431.592 710.888 430.059Z" fill="#DB2D36"/>
<path d="M717.573 375.209C716.829 390.714 715.052 407.68 711.745 425.579C701.377 426.896 680.1 433.59 659.542 452.31C652.392 451.514 645.231 451.956 638.016 454.242C645.575 449.857 652.168 442.976 657.372 436.145C662.915 428.87 667.009 421.485 669.121 416.813C671.867 412.04 674.893 407.723 678.075 403.835C680.477 401.669 682.643 399.31 684.488 396.741C696.643 384.556 709.728 377.859 717.573 375.209Z" fill="#DB2D36"/>
<path d="M717.538 339.267C718.025 348.726 718.17 359.251 717.764 370.622C709.419 373.122 694.762 380.29 681.312 393.822C679.153 395.994 677.024 398.331 674.957 400.841C668.423 406.653 659.849 411.086 651 414.354C639.523 418.594 627.88 420.767 620.36 421.504L615.173 416.934C624.59 414.273 633.447 409.499 640.854 404.464C649.326 398.704 656.026 392.518 659.643 388.526L659.717 388.444L659.782 388.355C673.883 369.176 686.948 356.932 697.489 349.421C706.318 343.129 713.275 340.229 717.538 339.267Z" fill="#DB2D36"/>
<path d="M716.349 323.581C716.709 327.135 717.027 330.919 717.285 334.914C712.194 335.911 704.431 339.181 694.991 345.907C684.042 353.709 670.685 366.267 656.378 385.709C652.976 389.448 646.57 395.365 638.434 400.896C630.461 406.315 620.945 411.285 611.066 413.533C608.625 411.988 605.196 409.91 601.417 407.776C606.087 406.32 610.422 403.818 614.123 401.102C619.387 397.237 623.562 392.794 625.832 389.826L626.29 389.226C657.494 373.558 688.098 352.187 716.349 323.581Z" fill="#DB2D36"/>
<path d="M615.62 394.354C608.287 397.724 600.933 400.79 593.578 403.573C594.269 403.921 594.959 404.276 595.646 404.635C601.276 403.967 606.817 401.116 611.575 397.624C613.019 396.563 614.375 395.456 615.62 394.354Z" fill="#DB2D36"/>
<path d="M578.317 408.951C581.53 407.901 584.745 406.799 587.962 405.644C589.977 406.575 592.094 407.635 594.218 408.755C600.164 411.889 605.976 415.392 609.36 417.557L612.46 420.288C607.451 419.25 601.645 419.454 594.956 421.263C591.215 416.599 585.338 411.254 578.591 409.039C578.5 409.009 578.409 408.979 578.317 408.951Z" fill="#DB2D36"/>
<path d="M554.667 415.794C555.763 415.516 556.861 415.234 557.959 414.945C557.471 415.478 556.99 416.043 556.514 416.643C555.934 416.353 555.318 416.069 554.667 415.794Z" fill="#DB2D36"/>
<path d="M546.51 417.758C537.531 419.812 528.628 421.496 519.842 422.847C517.032 424.669 514.237 426.99 511.521 429.907C513.433 431.602 515.45 433.356 517.547 435.138C521.476 433.142 528.054 432.003 536.861 433.452C542.576 434.392 549.285 436.428 556.932 440.077C556.762 439.914 556.596 439.745 556.434 439.572C554.28 437.253 553.035 434.119 552.55 430.949C552.065 427.769 552.316 424.379 553.337 421.416L553.409 421.206L553.523 421.015C553.684 420.744 553.846 420.478 554.009 420.217C551.952 419.247 549.404 418.353 546.51 417.758Z" fill="#DB2D36"/>
<path d="M505.817 424.739C507.632 424.528 509.454 424.303 511.281 424.064C510.283 424.984 509.293 425.971 508.312 427.028C507.451 426.246 506.618 425.482 505.817 424.739Z" fill="#DB2D36"/>
<path d="M455.283 427.307C469.584 427.506 484.631 426.929 500.169 425.353C504.443 429.41 509.889 434.325 515.932 439.418C522.14 444.649 528.993 450.08 535.866 454.965C542.112 459.405 548.408 463.418 554.275 466.422C558.738 468.708 563.055 470.464 566.974 471.341C563.741 471.389 558.762 470.959 552.666 470.169C545.095 469.187 536.086 467.691 527.184 466.067C523.421 464.814 518.418 461.462 513.522 457.548C508.64 453.645 504.111 449.385 501.448 446.669C495.107 440.136 488.831 436.344 482.781 434.645C476.716 432.943 471.016 433.384 465.915 435.1C456.265 438.346 448.793 446.128 444.615 452.567C442.454 452.805 440.348 453.106 438.298 453.463C438.731 452.592 439.235 451.642 439.804 450.624C441.268 448.005 443.091 445.055 445.035 442.065C448.588 436.604 452.504 431.077 455.283 427.307Z" fill="#DB2D36"/>
<path d="M450.029 427.198C447.529 427.129 445.054 427.037 442.604 426.923C442.144 428.556 441.476 429.917 440.605 431.015C439.228 432.751 437.462 433.675 435.625 434.019C433.814 434.357 431.966 434.132 430.298 433.649C430.957 436.846 431.795 440.615 432.702 444.147C433.354 446.687 434.034 449.076 434.699 451.029C435.112 450.219 435.564 449.378 436.044 448.519C437.572 445.785 439.451 442.746 441.425 439.711C444.322 435.26 447.449 430.773 450.029 427.198Z" fill="#DB2D36"/>
<path d="M469.225 538.589C474.629 620.605 448.364 692.489 437.934 709.813C548.162 685.25 615.366 613.7 635.989 588.069C580.52 589.208 494.826 553.896 469.225 538.589Z" fill="#DB2D36"/>
<path d="M42.0981 187.864C37.8184 195.698 33.9285 203.646 30.401 211.658C35.2527 212.05 42.0934 212.213 48.9998 211.602C56.157 210.97 63.0798 209.53 67.967 206.876C66.7135 205.021 65.7244 203.246 64.9933 201.639C54.6326 198.692 46.3919 192.217 42.0981 187.864Z" fill="#DB2D36"/>
<path d="M20.4006 237.21C21.8336 233.058 23.3544 228.908 24.9667 224.768L29.2369 215.887C34.3435 216.345 41.8109 216.567 49.3787 215.899C56.8758 215.236 64.7949 213.674 70.5725 210.359C74.6198 215.276 80.4798 220.427 88.3425 224.31C83.4893 230.135 75.3175 236.897 64.5117 240.666C52.7649 244.764 37.8028 245.365 20.4006 237.21Z" fill="#DB2D36"/>
<path d="M19.0112 241.32C18.2065 243.75 17.4313 246.181 16.6851 248.61C28.1496 253.709 38.9265 258.461 49.4509 261.013C60.5099 263.695 71.1262 263.9 81.7393 259.531C92.1732 255.235 102.857 246.414 114.01 230.601C105.716 230.262 98.5421 228.586 92.4164 226.129C87.2103 232.715 78.1183 240.487 65.9292 244.739C53.2224 249.172 37.2509 249.74 19.0112 241.32Z" fill="#DB2D36"/>
<path d="M15.4341 252.773C11.7584 265.281 8.83827 277.74 6.57193 289.967C15.7529 288.559 34.4257 282.456 52.9596 266.17C51.4527 265.894 49.9452 265.571 48.4368 265.205C37.6422 262.587 26.6622 257.767 15.4341 252.773Z" fill="#DB2D36"/>
<path d="M5.77232 294.426C2.71972 312.042 1.01152 329.123 0.338979 345.113C7.99198 342.643 21.6592 335.736 34.2328 322.823C36.0473 320.233 38.1842 317.847 40.5605 315.653C43.6955 311.726 46.6698 307.374 49.3576 302.568C51.4135 297.871 55.4189 290.437 60.8736 283.096C65.9956 276.203 72.5055 269.243 80.0118 264.767C72.8246 267.14 65.6693 267.668 58.5105 266.958C37.598 286.466 15.7719 293.261 5.77232 294.426Z" fill="#DB2D36"/>
<path d="M0.17425 349.667C8.25512 347.398 23.5507 340.022 37.4439 325.704C39.5764 323.506 41.6772 321.143 43.7147 318.609C50.1778 312.719 58.6986 308.183 67.5068 304.808C78.9324 300.431 90.5487 298.118 98.0587 297.291L103.301 301.798C93.9158 304.572 85.1172 309.452 77.7714 314.576C69.3691 320.437 62.7443 326.703 59.1754 330.739L59.1025 330.822L59.0383 330.911C45.1684 350.259 32.2514 362.659 21.801 370.297C12.1943 377.318 4.79478 380.228 0.709056 380.932L0.533923 380.726C-0.0031982 371.052 -0.157684 360.636 0.17425 349.667Z" fill="#DB2D36"/>
<path d="M0.818376 385.279C0.958472 387.294 1.11527 389.273 1.28775 391.216C4.67179 387.933 8.07993 384.745 11.5097 381.65C7.13685 383.775 3.50487 384.906 0.818376 385.279Z" fill="#DB2D36"/>
<path d="M71.983 143.809C80.4924 178.382 113.068 194.278 128.62 197.886L127.648 202.087C111.776 198.405 78.6664 182.538 68.5701 147.717L44.4849 184.128C48.1935 188.108 56.5589 195.022 67.0966 197.741L68.1462 198.012L68.5544 199.017C69.3611 201.003 70.7476 203.51 72.7815 206.202C79.7636 215.445 94.1404 226.584 117.881 226.348C120.202 225.968 124.042 224.985 128.021 223.25C132.105 221.47 136.151 218.978 138.896 215.704L139.697 214.749L140.923 214.967C147.288 216.099 156.839 216.128 164.821 212.695C168.779 210.992 172.303 208.462 174.907 204.833C177.454 201.283 179.206 196.563 179.519 190.281C178.414 186.837 176.165 181.853 172.925 177.753C169.576 173.516 165.485 170.597 160.787 170.659C157.945 171.097 153.772 172.695 151.096 175.912L150.354 176.905C148.905 179.081 148.035 182.01 148.592 185.988L148.816 187.585L147.349 188.251C134.18 194.234 103.531 192.164 79.2171 144.199L79.0312 143.833C76.5786 143.781 74.2269 143.774 71.983 143.809Z" fill="#DB2D36"/>
<path d="M118.255 147.658C120.4 152.561 123.99 159.471 128.622 166.139C130.934 169.468 133.474 172.689 136.187 175.558C134.818 171.388 133.774 166.649 133.008 162.167C132.249 157.718 131.752 153.453 131.489 150.13L131.625 150.119C127.055 149.187 122.593 148.369 118.255 147.658Z" fill="#DB2D36"/>
<path d="M135.888 151.016C136.069 153.011 136.328 155.292 136.672 157.71L142.81 152.587C140.479 152.034 138.171 151.511 135.888 151.016Z" fill="#DB2D36"/>
<path d="M164.213 158.339L157.82 166.903C158.712 166.653 159.551 166.479 160.299 166.371L160.426 166.353L160.554 166.35C166.291 166.209 170.976 169.216 174.544 173.029L182.492 164.344C176.318 162.14 170.216 160.143 164.213 158.339Z" fill="#DB2D36"/>
<path d="M186.874 165.939L183.968 169.115C188.5 174.74 194.193 174.582 196.314 173.917L197.92 173.414L198.797 174.852C203.966 183.333 210.975 185.017 213.361 184.944L213.466 184.94L213.571 184.947C214.836 185.032 218.616 184.529 223.463 181.79C211.175 175.653 198.906 170.402 186.874 165.939Z" fill="#DB2D36"/>
<path d="M227.967 184.079C222.627 187.628 217.863 188.955 214.915 189.217C213.012 194.488 212.828 199.744 213.288 203.94C215.303 200.367 218.341 197.259 221.551 194.691C225.533 191.504 230.02 188.953 233.826 187.177C231.874 186.122 229.921 185.089 227.967 184.079Z" fill="#DB2D36"/>
<path d="M238.605 189.809C234.644 191.372 229.013 194.24 224.241 198.06C221.239 200.462 218.728 203.116 217.111 205.937C227.592 198.191 238.064 194.989 245.913 194.025C243.481 192.583 241.044 191.178 238.605 189.809Z" fill="#DB2D36"/>
<path d="M252.491 198.026C262.009 203.961 271.435 210.484 280.662 217.642C267.225 227.5 251.551 225.135 243.804 222.022C243.722 216.422 241.044 210.794 235.842 207.753C232.965 206.07 229.475 205.266 225.461 205.593C236.492 199.169 246.738 197.774 252.491 198.026Z" fill="#DB2D36"/>
<path d="M284.168 220.4C288.83 224.119 293.437 228.003 297.976 232.059C290.564 240.463 270.732 250.844 234.542 238.365C236.679 236.611 238.747 234.567 240.731 232.21L240.803 232.125L240.865 232.034C242.037 230.31 242.848 228.41 243.317 226.447C252.479 229.75 269.597 231.773 284.168 220.4Z" fill="#DB2D36"/>
<path d="M301.178 234.958C292.134 245.223 269.35 255.824 230.285 241.425C217.58 249.346 203.394 247.973 190.886 243.045C179.192 238.437 168.687 230.63 161.608 223.841C157.481 230.406 154.218 236.661 151.659 242.492C155.295 242.477 160.197 242.889 165.666 243.531C173.393 244.439 182.558 245.85 191.56 247.382C202.865 249.307 213.95 251.429 221.675 253.004L221.85 253.039L222.018 253.104C240.521 260.222 257.478 261.563 271.892 259.951C275.696 259.526 279.324 258.895 282.758 258.109C287.801 256.956 292.424 255.469 296.568 253.813C303.011 251.239 308.271 248.264 312.139 245.516C308.539 241.877 304.882 238.359 301.178 234.958Z" fill="#DB2D36"/>
<path d="M315.184 248.636C318.16 251.727 321.095 254.902 323.986 258.164C323.098 264.068 319.392 267.851 317.238 269.188L315.678 270.156L316.385 271.851C317.781 275.198 317.284 279.954 315.753 284.922C315.032 287.263 314.116 289.541 313.171 291.577C306.181 290.447 298.787 289.5 291.041 288.784L291.858 288.385C298.156 285.31 300.491 278.698 301.09 272.425C301.613 266.956 300.881 261.262 299.916 257.098C306.148 254.459 311.306 251.461 315.184 248.636Z" fill="#DB2D36"/>
<path d="M290.548 288.739L289.811 288.3C287.991 287.214 285.456 286.387 283.473 286.783C282.652 286.947 281.914 287.318 281.289 288.022C284.426 288.223 287.514 288.463 290.548 288.739Z" fill="#DB2D36"/>
<path d="M276.433 287.743C274.232 287.632 272.007 287.54 269.76 287.467C271.97 284.276 274.443 280.591 276.762 276.931C278.7 273.873 280.542 270.812 282.037 268.059C282.507 267.195 282.949 266.349 283.352 265.533C284.04 267.478 284.749 269.858 285.431 272.391C286.381 275.912 287.265 279.67 287.961 282.859C286.288 282.396 284.437 282.193 282.631 282.553C280.797 282.919 279.043 283.865 277.687 285.617C277.203 286.242 276.785 286.95 276.433 287.743Z" fill="#DB2D36"/>
<path d="M264.594 287.338C249.157 287.061 232.739 287.739 215.663 289.675C211.803 286.179 207.232 282.207 202.265 278.121C195.994 272.965 189.077 267.617 182.145 262.815C175.847 258.451 169.503 254.514 163.6 251.58C159.11 249.348 154.772 247.645 150.842 246.815C154.075 246.727 159.059 247.097 165.164 247.814C172.746 248.705 181.772 250.092 190.694 251.609C194.471 252.817 199.514 256.109 204.456 259.963C209.385 263.808 213.965 268.013 216.66 270.697C223.079 277.153 229.401 280.869 235.47 282.494C241.555 284.124 247.249 283.614 252.329 281.837C261.94 278.475 269.319 270.604 273.418 264.115C275.576 263.851 277.679 263.524 279.724 263.143C279.302 264.018 278.809 264.975 278.253 265.999C276.82 268.636 275.033 271.608 273.124 274.621C270.252 279.155 267.132 283.738 264.594 287.338Z" fill="#DB2D36"/>
<path d="M156.256 301.342C151.716 302.627 147.158 304.011 142.586 305.5C142.146 305.398 141.706 305.277 141.268 305.138C135.104 303.196 129.4 297.944 125.957 293.434L125.042 292.236L123.604 292.684C116.006 295.056 109.921 295.106 105.064 293.772C100.215 292.44 96.4195 289.682 93.4677 286.147C87.8917 279.468 85.3946 270.085 84.8064 262.906C96.3478 257.742 107.742 247.605 119.338 230.47C120.16 230.314 121.091 230.106 122.101 229.844C121.73 261.716 133.367 279.29 140.025 284.389L141.368 285.417L142.685 284.356C146.976 280.896 150.388 279.531 152.947 279.323C155.414 279.123 157.263 279.978 158.644 281.429C160.08 282.939 161.079 285.18 161.5 287.733C161.907 290.199 161.747 292.796 161.056 295.009C160.557 295.859 160.054 296.649 159.546 297.382C158.46 298.953 157.359 300.261 156.256 301.342Z" fill="#DB2D36"/>
<path d="M202.983 291.332C191.044 293.098 178.831 295.494 166.45 298.616C165.73 298.349 165.053 298.068 164.421 297.779C164.581 297.516 164.739 297.248 164.897 296.975L165.009 296.783L165.079 296.572C166.064 293.597 166.274 290.204 165.75 287.03C165.228 283.866 163.945 280.748 161.763 278.455C161.6 278.283 161.432 278.116 161.259 277.955C168.95 281.512 175.683 283.467 181.408 284.339C190.232 285.682 196.796 284.463 200.701 282.42C202.819 284.177 204.857 285.907 206.789 287.578C205.537 288.956 204.266 290.204 202.983 291.332Z" fill="#DB2D36"/>
<path d="M136.118 307.674C133.054 308.737 129.984 309.847 126.911 311.006C126.064 310.591 125.208 310.162 124.352 309.724C118.369 306.661 112.516 303.229 109.106 301.105L105.974 298.411C110.994 299.389 116.797 299.115 123.464 297.225C126.521 300.944 130.967 305.087 136.118 307.674Z" fill="#DB2D36"/>
<path d="M97.858 323.45C99.773 321.528 102.03 319.507 104.541 317.616C108.209 314.856 112.514 312.302 117.165 310.789C113.361 308.701 109.907 306.665 107.448 305.15C97.5965 307.516 88.1409 312.6 80.2342 318.115C72.1654 323.743 65.8307 329.736 62.4732 333.517C56.7813 341.449 51.2312 348.254 45.9212 354.07C63.0094 341.97 80.4132 331.849 97.858 323.45Z" fill="#DB2D36"/>
<path d="M317.564 292.32C318.409 290.406 319.212 288.328 319.87 286.193C321.289 281.588 322.157 276.326 320.925 271.837C323.255 269.951 326.009 266.672 327.467 262.16C332.683 268.249 337.743 274.629 342.621 281.312C342.227 281.577 341.832 281.861 341.439 282.166C337.992 284.85 334.818 289.094 333.533 295.621C328.512 294.423 323.179 293.313 317.564 292.32Z" fill="#DB2D36"/>
<path d="M337.719 296.659C344.819 298.487 351.231 300.489 356.862 302.578C353.097 296.437 349.185 290.518 345.14 284.814C344.788 285.046 344.435 285.298 344.084 285.571C341.448 287.623 338.783 291.006 337.719 296.659Z" fill="#DB2D36"/>
<path d="M285.748 586.289C301.458 586.289 314.194 573.539 314.194 557.812C314.194 542.084 301.458 529.334 285.748 529.334C270.038 529.334 257.302 542.084 257.302 557.812C257.302 573.539 270.038 586.289 285.748 586.289Z" fill="#DB2D36"/>
<path fill-rule="evenodd" clip-rule="evenodd" d="M221.389 307.918C111.303 319.594 30.5634 383.503 4.13235 413.998C43.6012 642.533 240.945 718 339.084 718C407.07 506.978 288.474 354.432 221.389 307.918ZM20.8444 416.49V431.797C68.9655 446.154 169.119 471.167 184.764 456.359C200.41 441.55 219.255 368.315 226.722 333.548L218.189 323.937L179.075 328.208C173.623 350.635 158.381 397.125 141.029 403.675C123.677 410.225 71.9287 398.098 48.2237 391.216L20.8444 416.49ZM79.7814 508.227C127.189 519.255 205.211 537.405 218.9 530.046C220.431 529.222 221.833 528.535 223.14 527.895C238.211 520.507 240.465 519.402 280.059 388.368C315.023 426.694 374.642 546.207 329.128 703.405C260.028 699.015 105.329 649.439 43.6012 500.5C46.5612 500.5 60.684 503.785 79.7715 508.225L79.7738 508.226L79.7754 508.226L79.7775 508.226L79.7814 508.227Z" fill="#DB2D36"/>
<path d="M623.614 425.475C625.309 426.816 626.818 428.335 628.156 429.976C632.941 435.849 635.56 443.314 636.767 449.966C643.263 445.964 649.128 439.855 653.947 433.529C659.321 426.476 663.268 419.323 665.238 414.944L665.281 414.847L665.334 414.755C665.95 413.68 666.581 412.628 667.223 411.597C662.523 414.305 657.494 416.553 652.492 418.4C641.982 422.283 631.357 424.488 623.614 425.475Z" fill="#DB2D36"/>
<path d="M633.199 456.045C632.697 448.86 630.313 439.447 624.817 432.702C621.908 429.132 618.147 426.328 613.314 424.938C608.473 423.545 602.388 423.522 594.761 425.802L593.318 426.234L592.418 425.025C589.029 420.473 583.389 415.153 577.249 413.137C574.232 412.146 571.162 411.972 568.153 412.996C565.139 414.02 561.965 416.321 558.878 420.672C558.362 421.399 557.849 422.183 557.341 423.027C556.623 425.232 556.431 427.826 556.809 430.297C557.2 432.855 558.171 435.108 559.589 436.635C560.953 438.103 562.791 438.98 565.261 438.809C567.821 438.632 571.249 437.309 575.582 433.901L576.912 432.855L578.242 433.9C584.838 439.079 596.264 456.791 595.51 488.657C596.523 488.406 597.457 488.21 598.28 488.064C610.081 471.07 621.596 461.07 633.199 456.045Z" fill="#DB2D36"/>
<path d="M591.163 489.938C592.045 464.537 584.975 448.8 579.386 441.363C579.222 448.921 577.257 460.382 571.456 474.171C568.27 481.743 563.921 490.036 558.06 498.794L557.779 499.213C564.368 497.83 571.049 498.038 576.117 498.858C579.427 495.398 583.773 492.918 587.839 491.203C588.964 490.729 590.08 490.308 591.163 489.938Z" fill="#DB2D36"/>
<path d="M555.387 499.789L554.713 499.083C548.084 492.135 537.301 483.534 525.262 478.622C513.237 473.716 500.292 472.604 488.87 479.986C485.912 481.898 483.022 484.399 480.252 487.595C478.989 489.441 478.264 491.601 478.078 493.821C477.682 498.542 479.716 503.268 483.729 505.679C487.674 508.05 494.155 508.537 503.351 503.434L503.369 503.424L503.388 503.414C509.651 500.099 522.441 501.522 534.202 521.043C535.16 516.887 536.794 513.388 538.939 510.472C542.136 506.128 546.378 503.202 550.934 501.308C552.389 500.703 553.88 500.201 555.387 499.789Z" fill="#DB2D36"/>
<path d="M533.439 528.583C522.819 507.546 512.018 505.528 507.108 506.623C508.491 511.412 509.548 519.844 506.667 528.494C510.775 529.426 516.531 532.367 521.042 539.207C524.862 538.689 531.014 539.618 535.894 545.461L539.672 541.431C536.577 537.018 534.489 532.069 533.439 528.583Z" fill="#DB2D36"/>
<path d="M575.082 439.55C571.617 441.765 568.438 442.912 565.558 443.112C564.492 443.186 563.483 443.128 562.534 442.955C566.225 444.983 570.109 447.373 574.179 450.173C574.903 445.88 575.137 442.294 575.082 439.55Z" fill="#DB2D36"/>
<path d="M567.689 451.038C554.828 442.807 544.254 439.039 536.163 437.707C529.352 436.587 524.388 437.201 521.264 438.254C526.393 442.497 531.874 446.792 537.373 450.743C542.614 448.688 553.607 446.999 567.689 451.038Z" fill="#DB2D36"/>
<path d="M541.841 453.872C546.801 457.253 551.681 460.25 556.236 462.583C561.275 465.163 565.779 466.857 569.483 467.431C570.813 463.816 571.855 460.421 572.661 457.278C558.911 451.87 547.882 452.43 541.841 453.872Z" fill="#DB2D36"/>
<path d="M514.375 463.636C513.175 462.756 511.988 461.84 510.834 460.918C505.794 456.889 501.136 452.507 498.37 449.686L498.366 449.682L498.363 449.678C492.428 443.563 486.785 440.248 481.618 438.798C476.466 437.352 471.652 437.72 467.287 439.188C460.162 441.585 454.213 446.93 450.222 452.105C464.21 451.337 480.17 453.321 497.306 460.122C502 461.137 507.925 462.367 514.375 463.636Z" fill="#DB2D36"/>
<path d="M425.89 433.59C426.584 437.028 427.513 441.261 428.53 445.22C429.209 447.866 429.935 450.422 430.665 452.549C430.943 453.358 431.235 454.148 431.541 454.88C428.206 455.7 425.056 456.657 422.109 457.706C421.342 453.951 420.829 449.021 421.328 444.387C421.815 439.862 423.211 436.011 425.89 433.59Z" fill="#DB2D36"/>
<path d="M90.1624 288.913C91.5192 290.537 93.0464 292.039 94.7575 293.359C87.027 294.439 76.4291 296.772 65.9669 300.781C60.9873 302.688 55.9854 304.996 51.3183 307.761C51.9484 306.722 52.566 305.662 53.1696 304.58L53.2213 304.487L53.2636 304.39C55.1806 299.988 59.0411 292.788 64.3301 285.67C69.0731 279.287 74.8639 273.108 81.312 269.028C82.598 275.665 85.3072 283.098 90.1624 288.913Z" fill="#DB2D36"/>
<path d="M138.792 276.939C133.114 269.571 125.856 253.92 126.433 228.51C127.511 228.127 128.621 227.693 129.741 227.205C133.786 225.441 138.102 222.909 141.37 219.409C146.448 220.168 153.131 220.296 159.702 218.834L159.426 219.257C153.672 228.084 149.422 236.429 146.328 244.039C140.692 257.897 138.865 269.38 138.792 276.939Z" fill="#DB2D36"/>
<path d="M162.77 218.927L162.087 218.229C163.589 217.799 165.075 217.28 166.522 216.657C171.054 214.708 175.261 211.732 178.406 207.349C180.516 204.408 182.107 200.889 183.015 196.722C195.01 216.1 207.817 217.368 214.039 213.978L214.058 213.968L214.076 213.958C223.21 208.745 229.697 209.154 233.669 211.477C237.711 213.84 239.802 218.541 239.462 223.267C239.303 225.489 238.604 227.657 237.363 229.518C234.632 232.748 231.772 235.283 228.838 237.23C217.505 244.749 204.548 243.793 192.464 239.032C180.368 234.266 169.482 225.795 162.77 218.927Z" fill="#DB2D36"/>
<path d="M210.281 210.814C205.384 211.969 194.56 210.08 183.688 189.173C182.597 185.7 180.449 180.776 177.301 176.401L181.03 172.325C185.981 178.11 192.143 178.965 195.956 178.401C200.549 185.186 206.34 188.057 210.459 188.94C207.683 197.624 208.841 206.043 210.281 210.814Z" fill="#DB2D36"/>
<path d="M152.598 275.025C149.72 275.259 146.556 276.444 143.117 278.701C143.03 275.958 143.22 272.369 143.893 268.068C147.996 270.819 151.908 273.162 155.623 275.145C154.672 274.984 153.663 274.938 152.598 275.025Z" fill="#DB2D36"/>
<path d="M182.056 280.075C173.949 278.841 163.331 275.2 150.371 267.125C164.501 270.994 175.473 269.173 180.689 267.055C186.235 270.94 191.767 275.168 196.947 279.349C193.836 280.44 188.879 281.113 182.056 280.075Z" fill="#DB2D36"/>
<path d="M161.685 255.443C166.268 257.721 171.183 260.659 176.184 263.979C170.161 265.494 159.139 266.188 145.325 260.945C146.093 257.793 147.095 254.385 148.381 250.755C152.092 251.283 156.616 252.924 161.685 255.443Z" fill="#DB2D36"/>
<path d="M207.104 256.561C205.939 255.653 204.741 254.752 203.53 253.886C209.995 255.077 215.934 256.236 220.641 257.194C237.857 263.789 253.839 265.58 267.818 264.644C263.889 269.867 258.005 275.283 250.908 277.765C246.562 279.286 241.752 279.712 236.583 278.328C231.4 276.94 225.717 273.694 219.709 267.65L219.706 267.646L219.702 267.642C216.902 264.855 212.191 260.529 207.104 256.561Z" fill="#DB2D36"/>
<path d="M289.591 271.267C290.655 275.214 291.635 279.436 292.37 282.864C295.02 280.412 296.369 276.545 296.802 272.014C297.246 267.374 296.673 262.451 295.861 258.705C292.927 259.789 289.789 260.785 286.464 261.645C286.779 262.373 287.08 263.16 287.368 263.965C288.123 266.083 288.88 268.63 289.591 271.267Z" fill="#DB2D36"/>
<path d="M158.675 158.554L147.716 173.234C147.398 173.622 147.095 174.028 146.808 174.455C145.356 176.614 144.384 179.217 144.163 182.287C143.175 181.061 142.224 179.306 141.337 177.119C139.685 173.04 138.403 167.819 137.469 162.66L146.558 155.074L158.675 158.554Z" fill="#DB2D36"/>
<path d="M84.8938 145.758C105.398 183.78 129.032 188.313 141.283 185.7C135.04 181.391 129.541 175.017 125.085 168.602C120.033 161.328 116.175 153.788 113.971 148.605L84.8938 145.758Z" fill="#DB2D36"/>
</g>
</svg>
