<svg width="70" height="70" viewBox="0 0 70 70" fill="none" xmlns="http://www.w3.org/2000/svg">
<path d="M41.7942 14.0398C43.3258 14.0398 44.5675 12.7981 44.5675 11.2665C44.5675 9.73484 43.3258 8.49319 41.7942 8.49319C40.2625 8.49319 39.0209 9.73484 39.0209 11.2665C39.0209 12.7981 40.2625 14.0398 41.7942 14.0398Z" fill="#DB2D36"/>
<path fill-rule="evenodd" clip-rule="evenodd" d="M69.5617 29.3622C62.4621 37.4047 52.0785 39.8776 47.9648 39.866C31.9629 27.0812 33.8903 7.78832 36.9409 0C59.8206 1.66397 68.7298 20.9383 69.5617 29.3622ZM41.3782 30.0902C33.9458 17.749 35.8778 5.85857 37.7729 1.45598C53.0815 2.95355 61.9468 13.7509 64.4658 18.9624L51.466 16.2931C50.7034 16.0851 48.8314 15.7315 47.4448 15.9811C46.0581 16.2307 45.1799 17.749 44.9141 18.477L41.3782 30.0902ZM48.4154 38.202L46.3008 36.4341C47.491 32.2857 50.121 23.8156 51.1194 23.1223C52.1178 22.429 61.8428 24.4512 66.5805 25.5489L67.4818 26.4502L67.7938 28.9462L66.7538 29.9862L57.9486 28.2529C57.3015 28.1142 55.7716 27.8715 54.8286 28.0102C53.8857 28.1489 53.1647 29.3853 52.922 29.9862L50.6341 38.202H48.4154Z" fill="#DB2D36"/>
<path d="M8.61874 11.9598C12.2009 12.3989 20.2319 13.9358 23.6985 16.5704C23.5945 13.5891 23.9204 6.0943 26.1945 1.07465C22.6932 1.9413 15.3786 4.40259 8.61874 11.9598Z" fill="#DB2D36"/>
<path d="M34.7223 40.074C35.4133 40.3221 36.221 40.5596 37.1274 40.7706C37.0244 41.3548 36.7514 41.697 36.4831 41.9005C36.3671 41.9885 36.249 42.0527 36.1408 42.0991C35.6522 41.4529 35.1787 40.7782 34.7223 40.074Z" fill="#DB2D36"/>
<path d="M39.1285 41.1628C38.5722 41.0728 38.0409 40.9719 37.5375 40.8628C37.4138 41.5377 37.0887 41.9683 36.7369 42.2351C36.6249 42.3201 36.5114 42.3875 36.4026 42.4409C36.9278 43.1176 37.4694 43.7623 38.0247 44.3764C38.1515 43.8464 38.4655 43.4695 38.7246 43.265C38.6098 42.8265 38.7006 42.3151 38.8443 41.8683C38.9246 41.6189 39.0252 41.3777 39.1285 41.1628Z" fill="#DB2D36"/>
<path d="M39.081 43.5273C38.8479 43.668 38.4276 44.0956 38.3906 44.7746C38.6502 45.0524 38.9125 45.3238 39.1773 45.5888C39.5667 45.3015 40.1013 44.9924 40.7555 44.7248C40.6663 44.3183 40.6016 43.7629 40.659 43.231C40.7248 42.6208 40.9601 41.9798 41.5777 41.6877L41.6803 41.6391L41.7771 41.6984C41.9533 41.8062 42.1994 41.8897 42.3933 41.8535C42.482 41.8369 42.5612 41.7955 42.6271 41.7126C42.6586 41.6729 42.6893 41.6207 42.7161 41.5526C41.6025 41.4877 40.5468 41.376 39.5636 41.2303C39.4489 41.4561 39.3327 41.7218 39.2442 41.9969C39.0891 42.4789 39.0351 42.9415 39.1672 43.2689L39.2342 43.4349L39.081 43.5273Z" fill="#DB2D36"/>
<path d="M40.5777 46.9118C40.2078 46.5819 39.8417 46.2407 39.4801 45.8879C39.8661 45.6112 40.4072 45.3071 41.078 45.0487C41.484 44.8922 41.9364 44.7529 42.4293 44.6465C42.765 44.574 43.1195 44.5168 43.4908 44.4799C44.8978 44.3398 46.5493 44.4903 48.3448 45.2051L48.3611 45.2116L48.3781 45.2153C49.1293 45.3777 50.2075 45.5973 51.3073 45.798C52.1831 45.9577 53.0749 46.1059 53.8271 46.2033C54.3595 46.2723 54.837 46.3181 55.1914 46.3209C54.9351 46.8857 54.6097 47.491 54.1997 48.1254C53.5175 47.456 52.5025 46.6835 51.3679 46.2211C50.1544 45.7265 48.773 45.5763 47.5252 46.3327C43.6921 44.8689 41.4514 45.9127 40.5777 46.9118Z" fill="#DB2D36"/>
<path d="M42.2537 48.3124C41.7958 47.9541 41.342 47.5801 40.8934 47.1899C41.6085 46.3759 43.5577 45.3553 47.1067 46.6257C46.8962 46.7939 46.6923 46.9905 46.4961 47.2178L46.489 47.2259L46.4828 47.2348C46.3666 47.4012 46.2853 47.5853 46.2372 47.7759C45.3492 47.444 43.6862 47.2271 42.2537 48.3124Z" fill="#DB2D36"/>
<path d="M42.6 48.5798C43.5391 49.2954 44.4937 49.9463 45.4538 50.5371C46.0323 50.5408 46.9581 50.3907 47.9535 49.8275C47.5619 49.8546 47.2226 49.7722 46.9441 49.6051C46.4405 49.3028 46.186 48.7517 46.1846 48.2062C45.4356 47.8951 43.9183 47.6471 42.6 48.5798Z" fill="#DB2D36"/>
<path d="M46.7644 51.3054C46.5361 51.178 46.3078 51.0473 46.0797 50.9134C46.8293 50.8098 47.7959 50.5035 48.768 49.8038C48.607 50.0766 48.3591 50.3321 48.0637 50.5625C47.637 50.8953 47.1422 51.1508 46.7644 51.3054Z" fill="#DB2D36"/>
<path d="M47.7876 51.8548C47.6011 51.7585 47.4144 51.66 47.2277 51.5595C47.5753 51.3944 47.9683 51.1695 48.322 50.8937C48.6378 50.6474 48.9377 50.3483 49.1383 50.0027C49.1782 50.4119 49.1541 50.9234 48.9624 51.4345C48.6939 51.4551 48.2698 51.5643 47.7876 51.8548Z" fill="#DB2D36"/>
<path d="M51.7745 53.6215C50.616 53.1881 49.4318 52.679 48.241 52.085C48.658 51.8794 48.9759 51.843 49.0885 51.8519L49.0987 51.8527L49.109 51.8525C49.3416 51.8481 50.023 52.0203 50.5169 52.8522L50.6007 52.9933L50.7579 52.9461C50.9654 52.8839 51.5206 52.8752 51.9559 53.4282L51.7745 53.6215Z" fill="#DB2D36"/>
<path d="M53.9722 54.3661C53.3918 54.1896 52.8012 53.9942 52.2029 53.7787L52.8791 53.0582C53.2225 53.4337 53.6757 53.732 54.2351 53.725L54.2476 53.7248L54.26 53.7232C54.333 53.7136 54.415 53.6976 54.5023 53.6743L53.9722 54.3661Z" fill="#DB2D36"/>
<path d="M54.9558 54.6502C55.1748 54.7102 55.3921 54.7675 55.6075 54.8221L56.4812 54.1114C56.3963 53.6079 56.2774 53.098 56.1211 52.6988C56.0372 52.4848 55.9465 52.3128 55.8517 52.1922C55.8265 52.4909 55.7287 52.7432 55.5846 52.9518C55.5562 52.993 55.5261 53.0322 55.4947 53.0696L54.4092 54.4863L54.9558 54.6502Z" fill="#DB2D36"/>
<path d="M56.6056 55.0601C56.4445 55.0242 56.2821 54.9868 56.1186 54.9478L56.5532 54.5943C56.5744 54.7576 56.5918 54.9145 56.6056 55.0601Z" fill="#DB2D36"/>
<path d="M58.2441 55.3837C57.8511 55.3163 57.4479 55.2396 57.0355 55.1531C57.0112 54.8628 56.9719 54.5198 56.9155 54.1646C56.8461 53.7272 56.7499 53.2646 56.6213 52.8568C56.8825 53.1394 57.1263 53.456 57.3478 53.7829C57.7298 54.3466 58.0364 54.9269 58.2441 55.3837Z" fill="#DB2D36"/>
<path d="M58.7376 55.4644C59.7625 55.6237 60.7099 55.7189 61.5565 55.7613C59.6088 52.0875 57.3276 51.6245 56.1364 51.8633C56.74 52.2902 57.2686 52.9173 57.6955 53.5473C58.1659 54.2415 58.5261 54.9589 58.7376 55.4644Z" fill="#DB2D36"/>
<path d="M62.783 55.7864C62.5467 55.7893 62.2986 55.7874 62.0397 55.7802C59.7401 51.2715 56.8205 51.0486 55.548 51.6077L55.4043 51.6709L55.4242 51.8266C55.4738 52.2147 55.3856 52.4989 55.2418 52.7091L55.1684 52.8049C54.9037 53.115 54.495 53.2657 54.2175 53.3051C53.7594 53.3056 53.3639 53.0166 53.0425 52.6001C52.7314 52.197 52.518 51.7091 52.4143 51.3724C52.4522 50.7611 52.6285 50.3034 52.881 49.9607C53.139 49.6105 53.4856 49.3682 53.8734 49.2071C54.6556 48.8821 55.5866 48.8961 56.2058 49.0138L56.3251 49.0365L56.4042 48.9444C56.6757 48.6288 57.073 48.3908 57.4732 48.2223C57.8632 48.058 58.2386 47.9668 58.4653 47.9325C60.78 47.9374 62.1685 49.039 62.8384 49.9472C63.0335 50.2117 63.1657 50.4574 63.242 50.6518L63.2807 50.7501L63.3827 50.7777C64.3868 51.0494 65.1826 51.7115 65.5497 52.1066C65.4849 52.2214 65.4193 52.3362 65.3528 52.451L63.1805 55.6472C62.237 52.2446 59.0278 50.6607 57.4849 50.2835L57.3851 50.6915C58.8612 51.0523 61.9052 52.5726 62.783 55.7864Z" fill="#DB2D36"/>
<path d="M66.8915 49.4581C66.5509 50.2115 66.1757 50.9674 65.7629 51.7226C65.3381 51.2951 64.5633 50.6892 63.5923 50.4007C63.5229 50.2433 63.4285 50.0693 63.3085 49.8871C63.788 49.6345 64.4646 49.5024 65.1631 49.4491C65.7977 49.4008 66.4258 49.4192 66.8915 49.4581Z" fill="#DB2D36"/>
<path d="M67.0716 49.0528C67.3785 48.3493 67.6557 47.6485 67.9056 46.9531C66.2506 46.1758 64.8177 46.2213 63.6849 46.6008C62.6271 46.9552 61.8225 47.604 61.3426 48.1656C62.1045 48.553 62.6698 49.0614 63.0586 49.545C63.6257 49.2289 64.3995 49.0861 65.1312 49.0304C65.8583 48.975 66.575 49.0036 67.0716 49.0528Z" fill="#DB2D36"/>
<path d="M68.2815 45.8489C68.206 46.0835 68.1275 46.319 68.0459 46.5551C66.3088 45.7503 64.7777 45.7918 63.5515 46.2026C62.3582 46.6023 61.4628 47.3485 60.9476 47.9837C60.3533 47.7373 59.6558 47.5657 58.8477 47.5229C59.9535 45.9962 61.0053 45.1497 62.0275 44.7437C63.0673 44.3306 64.102 44.3631 65.1769 44.6372C66.1768 44.8921 67.1978 45.3521 68.2815 45.8489Z" fill="#DB2D36"/>
<path d="M69.3067 41.8808C69.0781 43.0364 68.7834 44.2293 68.4086 45.4451C67.3459 44.958 66.3059 44.4916 65.2807 44.2302C65.1341 44.1928 64.9875 44.1595 64.8409 44.1309C66.6113 42.6143 68.3832 42.03 69.3067 41.8808Z" fill="#DB2D36"/>
<path d="M69.9583 36.5393C69.8859 38.0492 69.7126 39.7014 69.3902 41.4444C68.3794 41.5728 66.305 42.2246 64.3007 44.0477C63.6037 43.9701 62.9055 44.0131 62.2021 44.2358C62.9391 43.8087 63.5818 43.1386 64.0892 42.4734C64.6296 41.765 65.0288 41.0457 65.2347 40.5908C65.5023 40.126 65.7974 39.7056 66.1076 39.327C66.3418 39.1161 66.5529 38.8863 66.7328 38.6362C67.9178 37.4495 69.1936 36.7973 69.9583 36.5393Z" fill="#DB2D36"/>
<path d="M69.9549 33.0391C70.0024 33.9602 70.0165 34.9852 69.977 36.0926C69.1634 36.336 67.7345 37.034 66.4232 38.3519C66.2127 38.5634 66.0052 38.791 65.8036 39.0354C65.1666 39.6013 64.3306 40.0331 63.468 40.3514C62.349 40.7643 61.2139 40.9759 60.4808 41.0476L59.9751 40.6025C60.8932 40.3435 61.7567 39.8785 62.4788 39.3882C63.3048 38.8273 63.9579 38.2249 64.3106 37.8361L64.3178 37.8281L64.3241 37.8195C65.6989 35.9517 66.9726 34.7594 68.0004 34.0279C68.8611 33.4152 69.5393 33.1327 69.9549 33.0391Z" fill="#DB2D36"/>
<path d="M69.8391 31.5115C69.8741 31.8576 69.9051 32.2261 69.9303 32.6152C69.4339 32.7123 68.6771 33.0307 67.7568 33.6857C66.6894 34.4455 65.3871 35.6685 63.9923 37.5618C63.6606 37.9259 63.036 38.5021 62.2429 39.0407C61.4656 39.5685 60.5379 40.0524 59.5747 40.2713C59.3367 40.1209 59.0024 39.9186 58.634 39.7108C59.0892 39.5689 59.5119 39.3253 59.8727 39.0608C60.3859 38.6844 60.7929 38.2517 61.0142 37.9627L61.059 37.9043C64.1011 36.3785 67.0848 34.2973 69.8391 31.5115Z" fill="#DB2D36"/>
<path d="M60.0187 38.4037C59.3038 38.7318 58.5867 39.0304 57.8698 39.3015C57.9371 39.3353 58.0044 39.3699 58.0714 39.4049C58.6202 39.3399 59.1604 39.0622 59.6243 38.7221C59.7651 38.6188 59.8973 38.511 60.0187 38.4037Z" fill="#DB2D36"/>
<path d="M56.3819 39.8251C56.6951 39.7229 57.0086 39.6156 57.3222 39.5031C57.5186 39.5938 57.7251 39.697 57.9322 39.8061C58.5118 40.1113 59.0784 40.4524 59.4083 40.6632L59.7105 40.9292C59.2223 40.8281 58.6562 40.848 58.0041 41.0242C57.6394 40.57 57.0664 40.0495 56.4086 39.8337C56.3998 39.8308 56.3908 39.8279 56.3819 39.8251Z" fill="#DB2D36"/>
<path d="M54.0762 40.4915C54.1831 40.4645 54.2901 40.437 54.3971 40.4089C54.3496 40.4608 54.3026 40.5158 54.2563 40.5742C54.1997 40.5461 54.1396 40.5184 54.0762 40.4915Z" fill="#DB2D36"/>
<path d="M53.2809 40.6828C52.4056 40.8829 51.5375 41.0468 50.681 41.1784C50.407 41.3558 50.1345 41.5819 49.8698 41.866C50.0561 42.031 50.2528 42.2018 50.4573 42.3753C50.8403 42.181 51.4816 42.07 52.3403 42.2112C52.8974 42.3027 53.5515 42.501 54.297 42.8564C54.2804 42.8405 54.2642 42.824 54.2485 42.8071C54.0385 42.5813 53.917 42.2762 53.8698 41.9674C53.8225 41.6578 53.847 41.3276 53.9465 41.039L53.9535 41.0186L53.9646 41C53.9803 40.9736 53.9961 40.9477 54.012 40.9223C53.8115 40.8278 53.563 40.7408 53.2809 40.6828Z" fill="#DB2D36"/>
<path d="M49.3136 41.3627C49.4906 41.3421 49.6682 41.3202 49.8464 41.297C49.749 41.3866 49.6525 41.4826 49.5569 41.5856C49.473 41.5094 49.3918 41.435 49.3136 41.3627Z" fill="#DB2D36"/>
<path d="M44.3869 41.6127C45.7812 41.6321 47.2481 41.5759 48.763 41.4225C49.1797 41.8176 49.7106 42.2962 50.2998 42.7921C50.905 43.3016 51.5731 43.8305 52.2432 44.3062C52.8521 44.7386 53.4659 45.1294 54.0379 45.422C54.473 45.6445 54.8939 45.8155 55.2761 45.9009C54.9608 45.9057 54.4754 45.8638 53.8811 45.7868C53.143 45.6912 52.2647 45.5455 51.3967 45.3873C51.0299 45.2653 50.5421 44.9389 50.0648 44.5577C49.5888 44.1776 49.1474 43.7628 48.8877 43.4982C48.2695 42.862 47.6576 42.4928 47.0678 42.3274C46.4765 42.1616 45.9208 42.2046 45.4235 42.3717C44.4826 42.6878 43.7542 43.4456 43.3469 44.0726C43.1362 44.0958 42.9308 44.1252 42.731 44.1599C42.7732 44.0751 42.8224 43.9826 42.8778 43.8835C43.0205 43.6284 43.1982 43.3411 43.3878 43.0499C43.7342 42.5182 44.116 41.9799 44.3869 41.6127Z" fill="#DB2D36"/>
<path d="M43.8747 41.6021C43.631 41.5955 43.3896 41.5865 43.1508 41.5754C43.106 41.7343 43.0408 41.8669 42.9559 41.9738C42.8217 42.1429 42.6495 42.2329 42.4704 42.2664C42.2939 42.2993 42.1137 42.2774 41.9511 42.2304C42.0153 42.5417 42.097 42.9087 42.1855 43.2527C42.249 43.5001 42.3153 43.7327 42.3801 43.9229C42.4204 43.844 42.4645 43.7621 42.5113 43.6784C42.6602 43.4122 42.8434 43.1163 43.0359 42.8207C43.3183 42.3872 43.6232 41.9503 43.8747 41.6021Z" fill="#DB2D36"/>
<path d="M45.7461 52.4498C46.2731 60.4369 43.7124 67.4371 42.6955 69.1242C53.442 66.7322 59.9939 59.7644 62.0045 57.2684C56.5966 57.3793 48.2421 53.9404 45.7461 52.4498Z" fill="#DB2D36"/>
<path d="M4.10427 18.2949C3.68703 19.0578 3.30779 19.8318 2.96389 20.612C3.43689 20.6502 4.10381 20.6661 4.77714 20.6066C5.47492 20.545 6.14984 20.4048 6.62631 20.1464C6.5041 19.9657 6.40767 19.7928 6.3364 19.6363C5.32629 19.3494 4.52288 18.7188 4.10427 18.2949Z" fill="#DB2D36"/>
<path d="M1.98891 23.1004C2.12862 22.696 2.27689 22.2919 2.43408 21.8888L2.8504 21.0239C3.34825 21.0685 4.07627 21.0901 4.81407 21.025C5.54499 20.9605 6.31705 20.8084 6.88033 20.4855C7.27491 20.9644 7.84622 21.466 8.61278 21.8442C8.13963 22.4115 7.34293 23.0699 6.28944 23.437C5.14421 23.836 3.68551 23.8946 1.98891 23.1004Z" fill="#DB2D36"/>
<path d="M1.85346 23.5006C1.775 23.7373 1.69943 23.974 1.62668 24.2106C2.74439 24.7071 3.79506 25.1699 4.82112 25.4184C5.89929 25.6796 6.93431 25.6996 7.96901 25.2741C8.98625 24.8558 10.0279 23.9967 11.1152 22.4568C10.3066 22.4238 9.60717 22.2606 9.00996 22.0213C8.50239 22.6627 7.61599 23.4195 6.42764 23.8336C5.18882 24.2653 3.6317 24.3206 1.85346 23.5006Z" fill="#DB2D36"/>
<path d="M1.50472 24.616C1.14636 25.8341 0.86167 27.0474 0.640718 28.2381C1.5358 28.101 3.35627 27.5066 5.16319 25.9206C5.01628 25.8938 4.86931 25.8622 4.72225 25.8266C3.66985 25.5717 2.59938 25.1023 1.50472 24.616Z" fill="#DB2D36"/>
<path d="M0.562761 28.6723C0.265154 30.3878 0.0986165 32.0512 0.0330481 33.6084C0.779162 33.3678 2.11162 32.6952 3.33746 31.4377C3.51436 31.1855 3.7227 30.9531 3.95437 30.7394C4.26001 30.3571 4.54998 29.9332 4.81202 29.4652C5.01246 29.0078 5.40296 28.2838 5.93476 27.5689C6.43411 26.8977 7.06878 26.2199 7.80059 25.784C7.09989 26.0151 6.4023 26.0666 5.70437 25.9974C3.66554 27.8971 1.53765 28.5588 0.562761 28.6723Z" fill="#DB2D36"/>
<path d="M0.0169881 34.0519C0.804817 33.8309 2.29603 33.1126 3.65052 31.7182C3.85842 31.5042 4.06323 31.2741 4.26188 31.0273C4.89199 30.4538 5.7227 30.012 6.58144 29.6834C7.69536 29.2571 8.82787 29.0318 9.56004 28.9513L10.0711 29.3902C9.15614 29.6603 8.29833 30.1356 7.58217 30.6346C6.763 31.2054 6.11713 31.8156 5.76919 32.2086L5.76208 32.2166L5.75582 32.2254C4.4036 34.1095 3.14429 35.3171 2.12545 36.0609C1.18886 36.7446 0.467457 37.028 0.069128 37.0966L0.0520538 37.0765C-0.000311802 36.1344 -0.0153731 35.1201 0.0169881 34.0519Z" fill="#DB2D36"/>
<path d="M0.079786 37.5199C0.0934444 37.7161 0.108731 37.9089 0.125546 38.098C0.455467 37.7783 0.787736 37.4679 1.12212 37.1665C0.695793 37.3735 0.341701 37.4836 0.079786 37.5199Z" fill="#DB2D36"/>
<path d="M7.01784 14.0046C7.84745 17.3715 11.0233 18.9195 12.5396 19.2709L12.4448 19.68C10.8974 19.3214 7.66942 17.7762 6.68511 14.3852L4.33697 17.9311C4.69853 18.3186 5.5141 18.992 6.54145 19.2568L6.64378 19.2831L6.68358 19.381C6.76223 19.5745 6.8974 19.8185 7.09569 20.0807C7.77639 20.9808 9.17804 22.0656 11.4926 22.0426C11.7189 22.0056 12.0933 21.9099 12.4812 21.741C12.8793 21.5676 13.2738 21.3249 13.5414 21.006L13.6195 20.913L13.739 20.9343C14.3596 21.0445 15.2907 21.0473 16.0689 20.713C16.4548 20.5472 16.7984 20.3008 17.0522 19.9474C17.3005 19.6017 17.4713 19.142 17.5019 18.5302C17.3941 18.1949 17.1748 17.7095 16.8589 17.3102C16.5325 16.8976 16.1336 16.6134 15.6756 16.6194C15.3986 16.6621 14.9917 16.8177 14.7308 17.1309L14.6585 17.2277C14.5172 17.4396 14.4324 17.7248 14.4867 18.1122L14.5085 18.2677L14.3655 18.3326C13.0816 18.9153 10.0935 18.7137 7.72311 14.0427L7.70499 14.007C7.46588 14.0019 7.2366 14.0012 7.01784 14.0046Z" fill="#DB2D36"/>
<path d="M11.5291 14.3795C11.7381 14.857 12.0882 15.5299 12.5398 16.1793C12.7652 16.5034 13.0127 16.8171 13.2773 17.0965C13.1439 16.6904 13.042 16.2289 12.9674 15.7924C12.8933 15.3592 12.8449 14.9438 12.8193 14.6202L12.8325 14.6192C12.387 14.5283 11.952 14.4487 11.5291 14.3795Z" fill="#DB2D36"/>
<path d="M13.2481 14.7065C13.2657 14.9008 13.291 15.1229 13.3246 15.3584L13.923 14.8595C13.6957 14.8057 13.4707 14.7547 13.2481 14.7065Z" fill="#DB2D36"/>
<path d="M16.0097 15.4196L15.3864 16.2537C15.4734 16.2293 15.5552 16.2123 15.6281 16.2018L15.6404 16.2L15.6529 16.1997C16.2122 16.186 16.669 16.4789 17.0169 16.8502L17.7917 16.0044C17.1898 15.7898 16.5949 15.5953 16.0097 15.4196Z" fill="#DB2D36"/>
<path d="M18.2189 16.1598L17.9356 16.4691C18.3774 17.0168 18.9325 17.0015 19.1393 16.9367L19.2959 16.8877L19.3813 17.0277C19.8852 17.8537 20.5686 18.0177 20.8012 18.0105L20.8114 18.0102L20.8217 18.0109C20.945 18.0191 21.3135 17.9701 21.7861 17.7034C20.5881 17.1058 19.3919 16.5944 18.2189 16.1598Z" fill="#DB2D36"/>
<path d="M22.2252 17.9263C21.7046 18.2719 21.2401 18.4012 20.9527 18.4267C20.7672 18.94 20.7493 19.4518 20.7941 19.8604C20.9906 19.5125 21.2868 19.2098 21.5997 18.9597C21.9879 18.6494 22.4253 18.401 22.7964 18.228C22.6061 18.1252 22.4157 18.0247 22.2252 17.9263Z" fill="#DB2D36"/>
<path d="M23.2623 18.4844C22.8762 18.6365 22.3272 18.9158 21.8619 19.2878C21.5693 19.5217 21.3245 19.7802 21.1668 20.0549C22.1886 19.3006 23.2096 18.9887 23.9748 18.8949C23.7377 18.7544 23.5001 18.6176 23.2623 18.4844Z" fill="#DB2D36"/>
<path d="M24.6161 19.2845C25.5441 19.8625 26.463 20.4977 27.3626 21.1948C26.0526 22.1548 24.5245 21.9245 23.7692 21.6213C23.7612 21.0759 23.5001 20.5279 22.9929 20.2317C22.7124 20.0679 22.3722 19.9896 21.9809 20.0214C23.0563 19.3958 24.0552 19.26 24.6161 19.2845Z" fill="#DB2D36"/>
<path d="M27.7044 21.4633C28.1589 21.8255 28.6081 22.2038 29.0506 22.5987C28.328 23.4172 26.3945 24.4282 22.8662 23.2129C23.0746 23.0421 23.2762 22.843 23.4696 22.6135L23.4766 22.6052L23.4826 22.5963C23.5969 22.4285 23.676 22.2434 23.7217 22.0523C24.6149 22.3739 26.2838 22.5709 27.7044 21.4633Z" fill="#DB2D36"/>
<path d="M29.3627 22.8811C28.4811 23.8807 26.2598 24.9131 22.4512 23.5108C21.2126 24.2822 19.8295 24.1486 18.6101 23.6686C17.47 23.2199 16.4458 22.4597 15.7556 21.7985C15.3533 22.4378 15.0352 23.0469 14.7857 23.6148C15.1401 23.6133 15.6181 23.6534 16.1513 23.716C16.9047 23.8044 17.7981 23.9417 18.6758 24.091C19.778 24.2784 20.8587 24.4851 21.6118 24.6384L21.6289 24.6419L21.6452 24.6482C23.4492 25.3414 25.1023 25.472 26.5076 25.315C26.8784 25.2736 27.2322 25.2122 27.567 25.1357C28.0586 25.0233 28.5093 24.8786 28.9134 24.7173C29.5414 24.4666 30.0542 24.1769 30.4314 23.9092C30.0804 23.5549 29.7239 23.2123 29.3627 22.8811Z" fill="#DB2D36"/>
<path d="M30.7283 24.2131C31.0184 24.5141 31.3046 24.8233 31.5864 25.141C31.4998 25.7159 31.1385 26.0843 30.9285 26.2145L30.7764 26.3088L30.8454 26.4739C30.9814 26.7998 30.933 27.263 30.7838 27.7467C30.7134 27.9747 30.6241 28.1966 30.532 28.3949C29.8505 28.2848 29.1296 28.1925 28.3744 28.1229L28.4541 28.084C29.0681 27.7845 29.2958 27.1407 29.3542 26.5298C29.4052 25.9972 29.3338 25.4426 29.2397 25.0372C29.8473 24.7802 30.3502 24.4882 30.7283 24.2131Z" fill="#DB2D36"/>
<path d="M28.3264 28.1185L28.2546 28.0757C28.0771 27.97 27.83 27.8895 27.6366 27.928C27.5566 27.9439 27.4847 27.9801 27.4237 28.0486C27.7296 28.0683 28.0306 28.0916 28.3264 28.1185Z" fill="#DB2D36"/>
<path d="M26.9503 28.0215C26.7357 28.0107 26.5188 28.0017 26.2998 27.9947C26.5152 27.6839 26.7563 27.325 26.9824 26.9686C27.1713 26.6707 27.3509 26.3727 27.4967 26.1046C27.5425 26.0204 27.5855 25.938 27.6249 25.8586C27.692 26.048 27.761 26.2798 27.8276 26.5264C27.9201 26.8693 28.0063 27.2353 28.0742 27.5459C27.9111 27.5008 27.7306 27.481 27.5546 27.5161C27.3758 27.5517 27.2047 27.6438 27.0725 27.8145C27.0254 27.8753 26.9846 27.9443 26.9503 28.0215Z" fill="#DB2D36"/>
<path d="M25.7961 27.9821C24.2911 27.9551 22.6905 28.0211 21.0256 28.2097C20.6493 27.8692 20.2037 27.4823 19.7194 27.0845C19.1081 26.5824 18.4337 26.0616 17.7579 25.5939C17.1438 25.1689 16.5254 24.7855 15.9499 24.4998C15.5121 24.2825 15.0892 24.1166 14.7061 24.0358C15.0213 24.0272 15.5071 24.0633 16.1023 24.1331C16.8415 24.2198 17.7215 24.3549 18.5913 24.5026C18.9595 24.6203 19.4513 24.9408 19.9331 25.3162C20.4136 25.6906 20.8601 26.1001 21.1229 26.3615C21.7487 26.9902 22.365 27.3521 22.9567 27.5104C23.5499 27.669 24.1051 27.6194 24.6004 27.4463C25.5374 27.1189 26.2567 26.3524 26.6564 25.7205C26.8668 25.6948 27.0718 25.663 27.2711 25.6258C27.23 25.7111 27.1819 25.8042 27.1277 25.904C26.9881 26.1608 26.8138 26.4502 26.6277 26.7436C26.3476 27.1852 26.0435 27.6314 25.7961 27.9821Z" fill="#DB2D36"/>
<path d="M15.2339 29.3458C14.7913 29.4709 14.3469 29.6057 13.9012 29.7508C13.8582 29.7408 13.8154 29.729 13.7726 29.7155C13.1717 29.5264 12.6156 29.0149 12.2799 28.5757L12.1907 28.459L12.0506 28.5027C11.3098 28.7337 10.7165 28.7386 10.243 28.6086C9.77022 28.4789 9.40023 28.2103 9.11245 27.866C8.56883 27.2157 8.32538 26.3019 8.26803 25.6028C9.39324 25.0999 10.5041 24.1127 11.6346 22.444C11.7147 22.4288 11.8055 22.4086 11.904 22.383C11.8678 25.4869 13.0024 27.1983 13.6515 27.6948L13.7824 27.795L13.9108 27.6916C14.3292 27.3547 14.6618 27.2218 14.9112 27.2016C15.1518 27.182 15.332 27.2653 15.4667 27.4066C15.6067 27.5536 15.704 27.7719 15.7451 28.0205C15.7848 28.2607 15.7692 28.5135 15.7018 28.7291C15.6532 28.8119 15.6041 28.8888 15.5547 28.9602C15.4488 29.1132 15.3414 29.2406 15.2339 29.3458Z" fill="#DB2D36"/>
<path d="M19.7894 28.371C18.6254 28.543 17.4348 28.7763 16.2277 29.0803C16.1576 29.0543 16.0915 29.0269 16.0299 28.9988C16.0455 28.9732 16.0609 28.9471 16.0763 28.9206L16.0872 28.9018L16.094 28.8813C16.1901 28.5915 16.2106 28.2611 16.1595 27.952C16.1086 27.6439 15.9835 27.3403 15.7708 27.117C15.7549 27.1002 15.7385 27.084 15.7217 27.0683C16.4714 27.4147 17.1278 27.6051 17.686 27.69C18.5463 27.8208 19.1863 27.7021 19.5669 27.5032C19.7735 27.6742 19.9722 27.8426 20.1605 28.0054C20.0384 28.1396 19.9145 28.2611 19.7894 28.371Z" fill="#DB2D36"/>
<path d="M13.2706 29.9625C12.9718 30.0659 12.6726 30.174 12.373 30.2869C12.2903 30.2465 12.2069 30.2048 12.1234 30.1621C11.5402 29.8638 10.9695 29.5296 10.6371 29.3227L10.3317 29.0604C10.8211 29.1557 11.3869 29.1289 12.0369 28.9449C12.3349 29.307 12.7684 29.7105 13.2706 29.9625Z" fill="#DB2D36"/>
<path d="M9.54048 31.4988C9.72717 31.3116 9.94721 31.1147 10.192 30.9307C10.5496 30.6618 10.9693 30.4131 11.4228 30.2658C11.0519 30.0625 10.7152 29.8642 10.4755 29.7166C9.51498 29.9471 8.59313 30.4421 7.82227 30.9792C7.03562 31.5273 6.41803 32.111 6.0907 32.4791C5.53578 33.2516 4.99469 33.9143 4.477 34.4807C6.14298 33.3023 7.83973 32.3167 9.54048 31.4988Z" fill="#DB2D36"/>
<path d="M30.9603 28.4672C31.0427 28.2808 31.121 28.0785 31.1851 27.8705C31.3234 27.422 31.4081 26.9096 31.288 26.4725C31.5151 26.2888 31.7836 25.9695 31.9258 25.5301C32.4343 26.1231 32.9276 26.7444 33.4031 27.3952C33.3647 27.421 33.3262 27.4487 33.288 27.4784C32.9519 27.7397 32.6424 28.1531 32.5171 28.7887C32.0276 28.672 31.5077 28.5639 30.9603 28.4672Z" fill="#DB2D36"/>
<path d="M32.9253 28.8898C33.6174 29.0678 34.2425 29.2627 34.7916 29.4662C34.4245 28.8681 34.0431 28.2917 33.6488 27.7363C33.6144 27.7588 33.58 27.7834 33.5458 27.81C33.2888 28.0098 33.029 28.3393 32.9253 28.8898Z" fill="#DB2D36"/>
<path d="M27.8584 57.0951C29.3901 57.0951 30.6317 55.8534 30.6317 54.3218C30.6317 52.7901 29.3901 51.5485 27.8584 51.5485C26.3268 51.5485 25.0851 52.7901 25.0851 54.3218C25.0851 55.8534 26.3268 57.0951 27.8584 57.0951Z" fill="#DB2D36"/>
<path fill-rule="evenodd" clip-rule="evenodd" d="M21.5839 29.9862C10.8512 31.1232 2.97972 37.3469 0.402875 40.3167C4.25081 62.5723 23.4905 69.9215 33.0583 69.9215C39.6865 49.3715 28.1242 34.5159 21.5839 29.9862ZM2.03218 40.5593V42.05C6.72366 43.4482 16.4879 45.884 18.0133 44.4419C19.5386 42.9998 21.3759 35.8679 22.1039 32.4821L21.2719 31.5461L17.4586 31.9621C16.9271 34.1461 15.441 38.6735 13.7493 39.3114C12.0576 39.9492 7.01255 38.7682 4.70147 38.098L2.03218 40.5593ZM7.77813 49.4931C12.4001 50.567 20.0067 52.3345 21.3412 51.6178C21.4905 51.5376 21.6272 51.4707 21.7546 51.4083C23.2239 50.6889 23.4437 50.5813 27.3038 37.8207C30.7126 41.5531 36.5249 53.1917 32.0877 68.5002C25.3509 68.0727 10.2688 63.2448 4.25081 48.7405C4.53939 48.7405 5.91627 49.0605 7.77716 49.4928L7.77739 49.4929L7.77755 49.4929L7.77775 49.493L7.77813 49.4931Z" fill="#DB2D36"/>
<path d="M60.798 41.4344C60.9633 41.5649 61.1104 41.7129 61.2408 41.8727C61.7073 42.4446 61.9627 43.1716 62.0803 43.8194C62.7137 43.4296 63.2854 42.8347 63.7553 42.2187C64.2792 41.5318 64.664 40.8352 64.856 40.4088L64.8603 40.3994L64.8654 40.3904C64.9255 40.2857 64.987 40.1832 65.0496 40.0829C64.5914 40.3466 64.1011 40.5654 63.6134 40.7454C62.5888 41.1235 61.5529 41.3383 60.798 41.4344Z" fill="#DB2D36"/>
<path d="M61.7325 44.4114C61.6836 43.7116 61.4511 42.795 60.9153 42.1382C60.6317 41.7905 60.265 41.5174 59.7938 41.382C59.3219 41.2464 58.7286 41.2442 57.9851 41.4662L57.8444 41.5082L57.7566 41.3905C57.4262 40.9473 56.8764 40.4292 56.2777 40.2328C55.9836 40.1363 55.6843 40.1194 55.391 40.2191C55.0972 40.3189 54.7877 40.5429 54.4867 40.9666C54.4364 41.0374 54.3864 41.1138 54.3368 41.196C54.2668 41.4107 54.2482 41.6633 54.285 41.9039C54.3231 42.153 54.4178 42.3725 54.556 42.5211C54.689 42.6641 54.8682 42.7495 55.109 42.7329C55.3586 42.7156 55.6928 42.5868 56.1153 42.2549L56.2449 42.153L56.3746 42.2548C57.0177 42.7591 58.1315 44.484 58.0581 47.5872C58.1568 47.5628 58.2479 47.5437 58.3281 47.5295C59.4787 45.8745 60.6013 44.9007 61.7325 44.4114Z" fill="#DB2D36"/>
<path d="M57.6342 47.712C57.7202 45.2383 57.031 43.7058 56.4861 42.9816C56.4701 43.7176 56.2785 44.8337 55.7129 46.1765C55.4024 46.914 54.9783 47.7215 54.407 48.5744L54.3796 48.6153C55.0219 48.4805 55.6733 48.5008 56.1674 48.5807C56.4901 48.2438 56.9138 48.0022 57.3102 47.8352C57.4199 47.789 57.5287 47.748 57.6342 47.712Z" fill="#DB2D36"/>
<path d="M54.1464 48.6714L54.0807 48.6026C53.4343 47.9259 52.3831 47.0883 51.2094 46.61C50.037 46.1322 48.775 46.024 47.6614 46.7429C47.373 46.929 47.0913 47.1725 46.8212 47.4838C46.6981 47.6636 46.6274 47.8739 46.6093 48.0901C46.5706 48.5499 46.769 49.0101 47.1603 49.2449C47.5448 49.4758 48.1767 49.5232 49.0732 49.0263L49.075 49.0253L49.0769 49.0244C49.6874 48.7015 50.9344 48.8401 52.081 50.7411C52.1744 50.3364 52.3336 49.9956 52.5428 49.7116C52.8545 49.2886 53.2681 49.0037 53.7123 48.8192C53.8541 48.7603 53.9994 48.7114 54.1464 48.6714Z" fill="#DB2D36"/>
<path d="M52.0066 51.4754C50.9712 49.4268 49.9182 49.2302 49.4395 49.3369C49.5743 49.8032 49.6773 50.6244 49.3965 51.4667C49.797 51.5575 50.3582 51.8439 50.798 52.5099C51.1704 52.4596 51.7701 52.55 52.246 53.1191L52.6143 52.7266C52.3125 52.2968 52.1089 51.8149 52.0066 51.4754Z" fill="#DB2D36"/>
<path d="M56.0665 42.805C55.7286 43.0207 55.4188 43.1325 55.138 43.1519C55.034 43.1591 54.9357 43.1535 54.8432 43.1366C55.203 43.3341 55.5816 43.5668 55.9785 43.8395C56.049 43.4215 56.0718 43.0722 56.0665 42.805Z" fill="#DB2D36"/>
<path d="M55.3458 43.9238C54.0918 43.1222 53.061 42.7552 52.2721 42.6256C51.6082 42.5165 51.1242 42.5763 50.8196 42.6788C51.3197 43.092 51.854 43.5102 52.3901 43.8951C52.9011 43.6949 53.9728 43.5305 55.3458 43.9238Z" fill="#DB2D36"/>
<path d="M52.8257 44.1998C53.3093 44.529 53.7851 44.8209 54.2292 45.048C54.7204 45.2993 55.1595 45.4643 55.5206 45.5202C55.6503 45.1682 55.7519 44.8375 55.8305 44.5315C54.4899 44.0047 53.4147 44.0594 52.8257 44.1998Z" fill="#DB2D36"/>
<path d="M50.148 45.1506C50.031 45.0649 49.9152 44.9757 49.8027 44.8859C49.3114 44.4936 48.8573 44.0668 48.5876 43.7921L48.5873 43.7917L48.5869 43.7913C48.0083 43.1958 47.4581 42.873 46.9544 42.7318C46.4521 42.5909 45.9828 42.6268 45.5573 42.7698C44.8626 43.0032 44.2826 43.5237 43.8935 44.0277C45.2573 43.9529 46.8132 44.1461 48.4839 44.8084C48.9415 44.9072 49.5192 45.027 50.148 45.1506Z" fill="#DB2D36"/>
<path d="M41.5213 42.2247C41.589 42.5594 41.6796 42.9716 41.7787 43.3572C41.8449 43.6149 41.9157 43.8638 41.9868 44.0709C42.0139 44.1497 42.0424 44.2266 42.0723 44.2979C41.7471 44.3778 41.44 44.471 41.1527 44.5732C41.0779 44.2074 41.0279 43.7274 41.0765 43.276C41.1241 42.8354 41.2601 42.4604 41.5213 42.2247Z" fill="#DB2D36"/>
<path d="M8.79021 28.1354C8.92248 28.2936 9.07138 28.4398 9.2382 28.5684C8.48453 28.6735 7.4513 28.9008 6.43132 29.2911C5.94584 29.4769 5.45819 29.7016 5.00318 29.9709C5.06461 29.8698 5.12482 29.7665 5.18367 29.6611L5.1887 29.6521L5.19283 29.6427C5.37972 29.214 5.7561 28.5128 6.27174 27.8196C6.73414 27.198 7.29871 26.5963 7.92736 26.199C8.05273 26.8453 8.31686 27.5691 8.79021 28.1354Z" fill="#DB2D36"/>
<path d="M13.5312 26.9694C12.9777 26.2518 12.2701 24.7277 12.3263 22.2532C12.4314 22.2159 12.5397 22.1736 12.6489 22.126C13.0432 21.9543 13.464 21.7077 13.7826 21.3669C14.2776 21.4408 14.9292 21.4533 15.5699 21.3108L15.543 21.352C14.9819 22.2117 14.5676 23.0243 14.2659 23.7654C13.7165 25.115 13.5384 26.2333 13.5312 26.9694Z" fill="#DB2D36"/>
<path d="M15.8689 21.3199L15.8024 21.2519C15.9488 21.2101 16.0936 21.1595 16.2347 21.0989C16.6766 20.909 17.0868 20.6192 17.3933 20.1925C17.5991 19.906 17.7542 19.5633 17.8427 19.1575C19.0121 21.0446 20.2607 21.1682 20.8673 20.838L20.8691 20.837L20.8709 20.836C21.7614 20.3284 22.3938 20.3682 22.7811 20.5944C23.1751 20.8245 23.379 21.2823 23.3459 21.7426C23.3304 21.9589 23.2623 22.1701 23.1413 22.3513C22.875 22.6658 22.5962 22.9127 22.3101 23.1023C21.2052 23.8346 19.942 23.7415 18.7639 23.2778C17.5846 22.8137 16.5233 21.9887 15.8689 21.3199Z" fill="#DB2D36"/>
<path d="M20.5009 20.5299C20.0235 20.6423 18.9682 20.4584 17.9083 18.4224C17.8019 18.0842 17.5926 17.6047 17.2856 17.1786L17.6492 16.7817C18.1318 17.345 18.7326 17.4282 19.1044 17.3734C19.5521 18.0341 20.1168 18.3137 20.5183 18.3997C20.2476 19.2454 20.3605 20.0652 20.5009 20.5299Z" fill="#DB2D36"/>
<path d="M14.8772 26.7829C14.5967 26.8057 14.2882 26.9212 13.9529 27.1409C13.9444 26.8738 13.963 26.5243 14.0285 26.1054C14.4286 26.3734 14.81 26.6015 15.1722 26.7946C15.0795 26.7789 14.9811 26.7745 14.8772 26.7829Z" fill="#DB2D36"/>
<path d="M17.7492 27.2747C16.9588 27.1546 15.9236 26.8 14.6602 26.0136C16.0377 26.3904 17.1074 26.2131 17.6159 26.0068C18.1566 26.3851 18.696 26.7969 19.201 27.2041C18.8976 27.3102 18.4144 27.3759 17.7492 27.2747Z" fill="#DB2D36"/>
<path d="M15.7631 24.876C16.21 25.0978 16.6892 25.384 17.1767 25.7073C16.5895 25.8548 15.515 25.9223 14.1682 25.4118C14.2431 25.1048 14.3407 24.773 14.4661 24.4194C14.8279 24.4709 15.2689 24.6306 15.7631 24.876Z" fill="#DB2D36"/>
<path d="M20.1912 24.9849C20.0777 24.8964 19.9608 24.8087 19.8428 24.7244C20.4731 24.8404 21.0521 24.9532 21.5109 25.0465C23.1894 25.6887 24.7476 25.8632 26.1104 25.772C25.7273 26.2806 25.1537 26.8081 24.4618 27.0498C24.0381 27.1979 23.5692 27.2394 23.0652 27.1046C22.5598 26.9694 22.0059 26.6533 21.4201 26.0648L21.4198 26.0644L21.4194 26.064C21.1465 25.7925 20.6872 25.3713 20.1912 24.9849Z" fill="#DB2D36"/>
<path d="M28.2331 26.417C28.3368 26.8014 28.4324 27.2125 28.5041 27.5464C28.7624 27.3076 28.8939 26.9309 28.9361 26.4898C28.9794 26.0379 28.9236 25.5585 28.8444 25.1936C28.5583 25.2992 28.2524 25.3962 27.9282 25.48C27.959 25.5508 27.9883 25.6275 28.0164 25.7059C28.09 25.9122 28.1638 26.1602 28.2331 26.417Z" fill="#DB2D36"/>
<path d="M15.4697 15.4406L14.4013 16.8702C14.3703 16.9079 14.3407 16.9475 14.3128 16.989C14.1712 17.1994 14.0764 17.4529 14.0549 17.7518C13.9586 17.6324 13.8658 17.4615 13.7794 17.2485C13.6183 16.8513 13.4933 16.3428 13.4023 15.8404L14.2884 15.1017L15.4697 15.4406Z" fill="#DB2D36"/>
<path d="M8.27656 14.1944C10.2755 17.8971 12.5797 18.3386 13.7741 18.0842C13.1654 17.6645 12.6294 17.0438 12.1949 16.4191C11.7024 15.7107 11.3263 14.9765 11.1114 14.4717L8.27656 14.1944Z" fill="#DB2D36"/>
</svg>
